<svg width="1745" height="917" viewBox="0 0 1745 917" fill="none" xmlns="http://www.w3.org/2000/svg">
<path d="M725 413L731.511 430.966H752.581L735.535 442.069L742.046 460.034L725 448.931L707.954 460.034L714.465 442.069L697.419 430.966H718.489L725 413Z" fill="url(#paint0_linear_85_20)"/>
<path d="M934 201L938.939 218.62L954.923 218.62L941.992 229.51L946.931 247.13L934 236.24L921.069 247.13L926.008 229.51L913.077 218.62L929.061 218.62L934 201Z" fill="url(#paint1_linear_85_20)"/>
<path d="M174 549L182.532 574.912H210.14L187.804 590.926L196.336 616.838L174 600.824L151.664 616.838L160.196 590.926L137.86 574.912H165.468L174 549Z" fill="url(#paint2_linear_85_20)"/>
<path d="M488.5 591L490.408 597.219H496.584L491.588 601.062L493.496 607.281L488.5 603.438L483.504 607.281L485.412 601.062L480.416 597.219H486.592L488.5 591Z" fill="url(#paint3_linear_85_20)"/>
<path d="M1253 791L1257.94 808.62L1273.92 808.62L1260.99 819.51L1265.93 837.13L1253 826.24L1240.07 837.13L1245.01 819.51L1232.08 808.62L1248.06 808.62L1253 791Z" fill="url(#paint4_linear_85_20)"/>
<path d="M1319 81L1323.94 98.6201L1339.92 98.6201L1326.99 109.51L1331.93 127.13L1319 116.24L1306.07 127.13L1311.01 109.51L1298.08 98.6201L1314.06 98.6201L1319 81Z" fill="url(#paint5_linear_85_20)"/>
<path d="M947 531L951.939 548.62L967.923 548.62L954.992 559.51L959.931 577.13L947 566.24L934.069 577.13L939.008 559.51L926.077 548.62L942.061 548.62L947 531Z" fill="url(#paint6_linear_85_20)"/>
<path d="M1057.06 227.061C1057.65 226.475 1057.65 225.525 1057.06 224.939L1047.51 215.393C1046.93 214.808 1045.98 214.808 1045.39 215.393C1044.81 215.979 1044.81 216.929 1045.39 217.515L1053.88 226L1045.39 234.485C1044.81 235.071 1044.81 236.021 1045.39 236.607C1045.98 237.192 1046.93 237.192 1047.51 236.607L1057.06 227.061ZM956 227.5H1056V224.5H956V227.5Z" fill="url(#paint7_linear_85_20)"/>
<path d="M533.099 283.021C533.663 282.414 533.628 281.465 533.021 280.901L523.128 271.715C522.521 271.151 521.572 271.186 521.008 271.793C520.444 272.4 520.48 273.349 521.087 273.913L529.88 282.079L521.715 290.872C521.151 291.479 521.186 292.428 521.793 292.992C522.4 293.556 523.349 293.52 523.913 292.913L533.099 283.021ZM505.056 284.499L532.056 283.499L531.944 280.501L504.944 281.501L505.056 284.499Z" fill="url(#paint8_linear_85_20)"/>
<path d="M145.061 395.061C145.646 394.475 145.646 393.525 145.061 392.939L135.515 383.393C134.929 382.808 133.979 382.808 133.393 383.393C132.808 383.979 132.808 384.929 133.393 385.515L141.879 394L133.393 402.485C132.808 403.071 132.808 404.021 133.393 404.607C133.979 405.192 134.929 405.192 135.515 404.607L145.061 395.061ZM44 395.5H144V392.5H44V395.5Z" fill="#E9D5D5"/>
<ellipse cx="946.5" cy="685.5" rx="28.5" ry="27.5" fill="url(#paint9_linear_85_20)"/>
<path d="M666.839 505.005L63.1971 727.277L208.119 512.878L63 283.268L666.839 505.005Z" fill="#FFA8A8" fill-opacity="0.15"/>
<path d="M926.018 817.396L763 857.524L802.868 816.147L764.963 770L926.018 817.396Z" fill="#FFA8A8" fill-opacity="0.15"/>
<ellipse cx="544" cy="763" rx="152" ry="154" fill="url(#paint10_linear_85_20)"/>
<path d="M1640.49 704.78L1623.86 751.829L1592.26 717.569L1640.49 704.78Z" fill="#FFA8A8" fill-opacity="0.39"/>
<ellipse cx="1490.5" cy="138" rx="37.5" ry="32" fill="url(#paint11_linear_85_20)"/>
<path d="M1703 439L1712.88 470.094H1744.85L1718.98 489.312L1728.86 520.406L1703 501.188L1677.14 520.406L1687.02 489.312L1661.15 470.094H1693.12L1703 439Z" fill="url(#paint12_linear_85_20)"/>
<path d="M298.5 694L301.98 707.474H313.241L304.131 715.802L307.611 729.276L298.5 720.948L289.389 729.276L292.869 715.802L283.759 707.474H295.02L298.5 694Z" fill="url(#paint13_linear_85_20)"/>
<defs>
<linearGradient id="paint0_linear_85_20" x1="725" y1="413" x2="725" y2="465" gradientUnits="userSpaceOnUse">
<stop stop-color="#6BA4FA"/>
<stop offset="1" stop-color="#D9D9D9" stop-opacity="0"/>
</linearGradient>
<linearGradient id="paint1_linear_85_20" x1="934" y1="201" x2="934" y2="252" gradientUnits="userSpaceOnUse">
<stop stop-color="#6BA4FA"/>
<stop offset="1" stop-color="#D9D9D9" stop-opacity="0"/>
</linearGradient>
<linearGradient id="paint2_linear_85_20" x1="174" y1="549" x2="174" y2="624" gradientUnits="userSpaceOnUse">
<stop stop-color="#6BA4FA" stop-opacity="0.32"/>
<stop offset="1" stop-color="#D9D9D9" stop-opacity="0"/>
</linearGradient>
<linearGradient id="paint3_linear_85_20" x1="488.5" y1="591" x2="488.5" y2="609" gradientUnits="userSpaceOnUse">
<stop stop-color="#6BA4FA"/>
<stop offset="1" stop-color="#D9D9D9" stop-opacity="0"/>
</linearGradient>
<linearGradient id="paint4_linear_85_20" x1="1253" y1="791" x2="1253" y2="842" gradientUnits="userSpaceOnUse">
<stop stop-color="#6BA4FA"/>
<stop offset="1" stop-color="#D9D9D9" stop-opacity="0"/>
</linearGradient>
<linearGradient id="paint5_linear_85_20" x1="1319" y1="81" x2="1319" y2="132" gradientUnits="userSpaceOnUse">
<stop stop-color="#6BA4FA"/>
<stop offset="1" stop-color="#D9D9D9" stop-opacity="0"/>
</linearGradient>
<linearGradient id="paint6_linear_85_20" x1="947" y1="531" x2="947" y2="582" gradientUnits="userSpaceOnUse">
<stop stop-color="#6BA4FA"/>
<stop offset="1" stop-color="#D9D9D9" stop-opacity="0"/>
</linearGradient>
<linearGradient id="paint7_linear_85_20" x1="1102" y1="224" x2="960.5" y2="259" gradientUnits="userSpaceOnUse">
<stop stop-color="#76E2FA"/>
<stop offset="1" stop-color="#78FA76" stop-opacity="0"/>
</linearGradient>
<linearGradient id="paint8_linear_85_20" x1="544.346" y1="279.541" x2="504.084" y2="283.734" gradientUnits="userSpaceOnUse">
<stop stop-color="#76E2FA"/>
<stop offset="1" stop-color="#78FA76" stop-opacity="0"/>
</linearGradient>
<linearGradient id="paint9_linear_85_20" x1="924.786" y1="668.694" x2="966.13" y2="714.474" gradientUnits="userSpaceOnUse">
<stop stop-color="#6688FF" stop-opacity="0.4"/>
<stop offset="1" stop-color="#6ECDF5" stop-opacity="0"/>
</linearGradient>
<linearGradient id="paint10_linear_85_20" x1="456.125" y1="609" x2="690.626" y2="891.927" gradientUnits="userSpaceOnUse">
<stop stop-color="#AACCFF" stop-opacity="0.21"/>
<stop offset="1" stop-color="#AACCFF" stop-opacity="0"/>
</linearGradient>
<linearGradient id="paint11_linear_85_20" x1="1461.93" y1="118.444" x2="1509.09" y2="177.495" gradientUnits="userSpaceOnUse">
<stop stop-color="#6688FF" stop-opacity="0.55"/>
<stop offset="1" stop-color="#6ECDF5" stop-opacity="0"/>
</linearGradient>
<linearGradient id="paint12_linear_85_20" x1="1703" y1="439" x2="1703" y2="529" gradientUnits="userSpaceOnUse">
<stop stop-color="#6BA4FA" stop-opacity="0.69"/>
<stop offset="1" stop-color="#D9D9D9" stop-opacity="0"/>
</linearGradient>
<linearGradient id="paint13_linear_85_20" x1="298.5" y1="694" x2="298.5" y2="733" gradientUnits="userSpaceOnUse">
<stop stop-color="#6BA4FA"/>
<stop offset="1" stop-color="#D9D9D9" stop-opacity="0"/>
</linearGradient>
</defs>
</svg>
